<?xml version="1.0" encoding="UTF-8" standalone="no"?>
<svg
   xmlns:dc="http://purl.org/dc/elements/1.1/"
   xmlns:cc="http://creativecommons.org/ns#"
   xmlns:rdf="http://www.w3.org/1999/02/22-rdf-syntax-ns#"
   xmlns:svg="http://www.w3.org/2000/svg"
   xmlns="http://www.w3.org/2000/svg"
   xmlns:sodipodi="http://sodipodi.sourceforge.net/DTD/sodipodi-0.dtd"
   xmlns:inkscape="http://www.inkscape.org/namespaces/inkscape"
   version="1.1"
   id="svg833"
   xml:space="preserve"
   width="1000"
   height="541"
   viewBox="0 0 999.99999 541"
   sodipodi:docname="RZS_logo_official_version_FullColour.svg"
   inkscape:version="1.0.1 (3bc2e813f5, 2020-09-07)"><metadata
     id="metadata839"><rdf:RDF><cc:Work
         rdf:about=""><dc:format>image/svg+xml</dc:format><dc:type
           rdf:resource="http://purl.org/dc/dcmitype/StillImage" /><dc:title></dc:title></cc:Work></rdf:RDF></metadata><defs
     id="defs837"><clipPath
       clipPathUnits="userSpaceOnUse"
       id="clipPath849"><path
         d="M 0,0 H 566.929 V 566.929 H 0 Z"
         id="path847" /></clipPath><clipPath
       clipPathUnits="userSpaceOnUse"
       id="clipPath865"><path
         d="m 65.636,305.726 -0.045,-0.006 c -1.787,-0.097 -3.288,-1.471 -3.469,-3.307 v 0 c -0.134,-1.371 0.51,-2.628 1.562,-3.368 v 0 c 0.308,-0.216 0.641,-0.4 1.011,-0.515 v 0 l 0.071,-0.014 10.999,-2.884 c 0,0 65.105,-15.964 65.205,-29.727 v 0 c 0.169,-23.154 -24.238,-68.39 -40.868,-96.498 v 0 c -0.011,-0.017 -0.021,-0.035 -0.031,-0.052 v 0 c -0.376,-0.573 -0.598,-1.257 -0.598,-1.992 v 0 c 0,-2.011 1.629,-3.64 3.639,-3.64 v 0 c 0.967,0 1.839,0.383 2.49,0.998 v 0 c 0.048,0.047 0.096,0.093 0.143,0.141 v 0 c 35.721,35.282 102.965,106.686 80.345,123.499 v 0 c -20.907,15.54 -61.783,18.522 -90.08,18.523 v 0 c -17.629,0 -30.374,-1.158 -30.374,-1.158"
         id="path863" /></clipPath><linearGradient
       x1="0"
       y1="0"
       x2="1"
       y2="0"
       gradientUnits="userSpaceOnUse"
       gradientTransform="matrix(128.53531,0,0,-128.53531,62.104492,163.72363)"
       spreadMethod="pad"
       id="linearGradient877"><stop
         style="stop-opacity:1;stop-color:#80cc28"
         offset="0"
         id="stop871" /><stop
         style="stop-opacity:1;stop-color:#80cc28"
         offset="0.15"
         id="stop873" /><stop
         style="stop-opacity:1;stop-color:#4dbd38"
         offset="1"
         id="stop875" /></linearGradient><clipPath
       clipPathUnits="userSpaceOnUse"
       id="clipPath887"><path
         d="m 95.433,383.783 c 0,-6.92 3.634,-12.969 9.082,-16.405 v 0 c 1.321,-0.948 2.351,-2.037 3.564,-4.233 v 0 c 0.078,-0.14 0.169,-0.276 0.263,-0.411 v 0 c 7.018,-12.424 18.726,-27.64 38.229,-42.338 v 0 c 0.626,-0.443 5.173,-3.577 10.285,-4.823 v 0 c 8.433,-1.888 26.371,-3.198 50.147,-6.761 v 0 c 21.891,-3.28 37.249,-11.194 46.333,-17.301 v 0 c 0.046,-0.033 0.093,-0.065 0.141,-0.095 v 0 c 0.558,-0.358 1.218,-0.571 1.929,-0.571 v 0 c 1.981,0 3.588,1.606 3.588,3.586 v 0 c 0,0.709 -0.213,1.365 -0.567,1.921 v 0 c -0.028,0.043 -0.057,0.088 -0.085,0.132 v 0 c -8.022,12.589 -22.078,31.026 -84.497,46.22 v 0 c 0,0 -17.787,3.764 -36.849,13.345 v 0 c -5.835,3.026 -11.803,6.772 -15.518,10.318 v 0 c 7.356,2.85 12.799,9.521 12.799,17.416 v 0 c 0,10.726 -8.695,19.421 -19.422,19.421 v 0 c -10.726,0 -19.422,-8.695 -19.422,-19.421"
         id="path885" /></clipPath><linearGradient
       x1="0"
       y1="0"
       x2="1"
       y2="0"
       gradientUnits="userSpaceOnUse"
       gradientTransform="matrix(163.56075,0,0,-163.56075,95.432861,290.84473)"
       spreadMethod="pad"
       id="linearGradient897"><stop
         style="stop-opacity:1;stop-color:#50ade5"
         offset="0"
         id="stop893" /><stop
         style="stop-opacity:1;stop-color:#145fa6"
         offset="1"
         id="stop895" /></linearGradient></defs><sodipodi:namedview
     pagecolor="#ffffff"
     bordercolor="#666666"
     borderopacity="1"
     objecttolerance="10"
     gridtolerance="10"
     guidetolerance="10"
     inkscape:pageopacity="0"
     inkscape:pageshadow="2"
     inkscape:window-width="3840"
     inkscape:window-height="2107"
     id="namedview835"
     showgrid="false"
     inkscape:zoom="1.7932453"
     inkscape:cx="252.10584"
     inkscape:cy="293.10202"
     inkscape:window-x="-8"
     inkscape:window-y="-8"
     inkscape:window-maximized="1"
     inkscape:current-layer="g841" /><g
     id="g841"
     inkscape:groupmode="layer"
     inkscape:label="RZS_logo_official_version_FullColour"
     transform="matrix(1.3333333,0,0,-1.3333333,0,541)"><g
       id="g917"
       transform="matrix(1.6940705,0,0,1.6940705,-105.2093,-277.33215)"><g
         id="g843"><g
           id="g845"
           clip-path="url(#clipPath849)"><g
             id="g851"
             transform="translate(497.1221,215.9873)"><path
               d="M 0,0 V 3.433 H 6.621 V 7.811 H 0 v 3.43 h 7.459 v 4.38 H -5.27 V -4.378 H 7.703 V 0 Z m -9.473,-2.201 c 0.136,0.837 0.204,1.732 0.204,2.687 v 15.135 h -5.297 V 0.973 c 0,-0.955 -0.033,-1.828 -0.094,-2.621 -0.064,-0.793 -0.173,-1.564 -0.326,-2.31 -0.152,-0.748 -0.359,-1.505 -0.621,-2.271 -0.262,-0.764 -0.58,-1.59 -0.959,-2.473 l 3.296,-1.459 c 0.739,1.027 1.366,1.982 1.878,2.864 0.514,0.884 0.928,1.743 1.245,2.582 0.314,0.837 0.539,1.674 0.674,2.514 m -14.47,-2.177 h 5.27 v 19.999 h -5.27 z m -8.35,0 h 4.295 v 19.999 h -4.593 V 4.839 h -0.298 l -1,2.079 -5.701,8.703 h -4.324 V -4.378 h 4.595 V 6.485 h 0.296 l 0.947,-2.025 z m -27.997,0 h 12.972 V 0 h -7.703 v 3.433 h 6.621 v 4.378 h -6.621 v 3.43 h 7.46 v 4.38 H -60.29 Z m 9.913,82.195 c 1.184,2.897 1.776,6.157 1.776,9.78 0,3.427 -0.427,6.324 -1.283,8.697 -0.856,2.369 -1.961,4.362 -3.31,5.978 -1.35,1.613 -2.9,2.915 -4.644,3.904 -1.747,0.986 -3.508,1.842 -5.286,2.568 -1.713,0.657 -3.36,1.25 -4.94,1.777 -1.582,0.527 -2.981,1.12 -4.2,1.781 -1.219,0.657 -2.209,1.448 -2.964,2.369 -0.758,0.921 -1.137,2.109 -1.137,3.558 0,3.756 2.601,5.632 7.805,5.632 0.988,0 2.175,-0.082 3.558,-0.247 1.383,-0.164 2.832,-0.362 4.347,-0.592 1.515,-0.233 3.015,-0.513 4.496,-0.842 1.483,-0.328 2.849,-0.692 4.1,-1.085 v 15.315 c -3.16,0.986 -6.24,1.712 -9.238,2.174 -2.997,0.459 -5.976,0.692 -8.942,0.692 -8.036,0 -14.277,-1.845 -18.724,-5.533 -4.447,-3.691 -6.669,-8.861 -6.669,-15.514 0,-4.414 0.493,-8.037 1.483,-10.869 0.987,-2.835 2.272,-5.104 3.852,-6.817 1.582,-1.715 3.36,-3.03 5.336,-3.955 1.976,-0.921 3.919,-1.647 5.83,-2.171 1.515,-0.396 2.946,-0.776 4.297,-1.137 1.351,-0.363 2.553,-0.807 3.607,-1.335 1.053,-0.527 1.878,-1.184 2.471,-1.975 0.592,-0.791 0.888,-1.812 0.888,-3.062 0,-4.547 -3.227,-6.82 -9.683,-6.82 -1.384,0 -2.899,0.116 -4.544,0.346 -1.649,0.232 -3.296,0.527 -4.941,0.889 -1.647,0.364 -3.261,0.791 -4.841,1.284 -1.581,0.497 -2.964,1.039 -4.15,1.63 V 68.134 c 4.214,-1.383 8.101,-2.39 11.658,-3.014 3.558,-0.626 7.081,-0.941 10.573,-0.941 3.886,0 7.377,0.545 10.474,1.634 3.095,1.084 5.73,2.632 7.905,4.642 2.174,2.007 3.854,4.462 5.04,7.362 M -89.395,50.203 h -14.107 v -4.485 h 4.405 V 30.206 h 5.269 v 15.512 h 4.433 z m -67.597,15.164 h 51.084 v 16.104 h -30.038 v 0.989 l 28.259,38.142 v 17.883 h -47.624 v -16.106 h 26.578 v -1.086 l -28.259,-38.141 z m 0.281,-14.893 c -2.9,0 -5.054,-0.846 -6.458,-2.541 -1.406,-1.695 -2.109,-4.281 -2.109,-7.756 0,-3.458 0.703,-6.03 2.109,-7.714 1.404,-1.685 3.558,-2.527 6.458,-2.527 2.936,0 5.107,0.832 6.512,2.5 1.406,1.664 2.108,4.246 2.108,7.741 0,3.513 -0.699,6.109 -2.094,7.783 -1.397,1.675 -3.571,2.514 -6.526,2.514 m -1.5,-4.596 c 0.406,0.199 0.906,0.298 1.5,0.298 0.613,0 1.127,-0.096 1.541,-0.284 0.414,-0.189 0.746,-0.514 1,-0.972 0.251,-0.459 0.427,-1.075 0.527,-1.853 0.098,-0.774 0.147,-1.736 0.147,-2.89 0,-1.133 -0.053,-2.081 -0.161,-2.838 -0.108,-0.757 -0.289,-1.363 -0.541,-1.822 -0.252,-0.462 -0.58,-0.791 -0.986,-0.986 -0.406,-0.199 -0.914,-0.299 -1.527,-0.299 -0.594,0 -1.094,0.1 -1.5,0.299 -0.406,0.195 -0.729,0.531 -0.973,0.999 -0.242,0.466 -0.419,1.079 -0.527,1.836 -0.107,0.757 -0.162,1.695 -0.162,2.811 0,1.134 0.055,2.086 0.162,2.852 0.108,0.764 0.285,1.38 0.527,1.85 0.244,0.469 0.567,0.801 0.973,0.999 m -5.992,19.489 -13.933,27.667 c 7.641,3.753 11.463,10.735 11.463,20.945 0,4.479 -0.66,8.334 -1.976,11.56 -1.318,3.229 -3.359,5.879 -6.126,7.954 -2.767,2.075 -6.309,3.592 -10.623,4.547 -4.315,0.952 -9.47,1.432 -15.464,1.432 -3.622,0 -7.113,-0.118 -10.472,-0.347 -3.361,-0.229 -6.457,-0.608 -9.288,-1.136 V 65.367 h 19.267 v 24.209 h 6.323 l 10.969,-24.209 z m -22.233,48.612 c 0,-1.911 -0.164,-3.475 -0.493,-4.691 -0.33,-1.223 -0.905,-2.208 -1.729,-2.965 -0.825,-0.76 -1.944,-1.284 -3.359,-1.582 -1.418,-0.295 -3.18,-0.445 -5.287,-0.445 -0.528,0 -1.219,0.017 -2.075,0.052 -0.856,0.031 -1.517,0.082 -1.976,0.146 v 19.069 c 0.329,0.066 0.904,0.134 1.73,0.2 0.821,0.064 1.398,0.098 1.729,0.098 2.237,0 4.1,-0.147 5.583,-0.445 1.48,-0.298 2.65,-0.825 3.506,-1.582 0.856,-0.756 1.466,-1.777 1.828,-3.061 0.361,-1.284 0.543,-2.882 0.543,-4.794 m -31.646,-63.601 c -0.918,-0.063 -1.765,-0.165 -2.54,-0.309 V 30.206 h 5.269 v 6.619 h 1.729 l 3.002,-6.619 h 5.431 L -209,37.773 c 2.088,1.024 3.134,2.935 3.134,5.729 0,1.223 -0.181,2.277 -0.541,3.16 -0.361,0.884 -0.919,1.609 -1.676,2.175 -0.757,0.568 -1.724,0.982 -2.905,1.246 -1.18,0.261 -2.589,0.391 -4.229,0.391 -0.991,0 -1.945,-0.032 -2.865,-0.096 m 2.729,-4.257 c 0.091,0.018 0.249,0.038 0.473,0.055 0.226,0.017 0.383,0.027 0.474,0.027 0.612,0 1.122,-0.041 1.526,-0.123 0.406,-0.078 0.726,-0.223 0.96,-0.432 0.233,-0.205 0.401,-0.485 0.5,-0.835 0.099,-0.352 0.149,-0.791 0.149,-1.311 0,-0.523 -0.046,-0.952 -0.135,-1.284 -0.091,-0.336 -0.248,-0.603 -0.472,-0.812 -0.226,-0.205 -0.533,-0.352 -0.92,-0.431 -0.389,-0.082 -0.87,-0.123 -1.447,-0.123 -0.144,0 -0.332,0.006 -0.567,0.013 -0.234,0.011 -0.414,0.025 -0.541,0.041 z m 2.459,-35.203 -7.728,-10.432 v -4.864 h 13.972 v 4.405 h -8.216 v 0.271 l 7.73,10.431 v 4.892 h -13.027 v -4.405 h 7.269 z m 24.835,21.518 c 1.406,1.664 2.108,4.246 2.108,7.741 0,3.513 -0.699,6.109 -2.094,7.783 -1.397,1.675 -3.572,2.514 -6.527,2.514 -2.9,0 -5.053,-0.846 -6.457,-2.541 -1.406,-1.695 -2.11,-4.281 -2.11,-7.756 0,-3.458 0.704,-6.03 2.11,-7.714 1.404,-1.685 3.557,-2.527 6.457,-2.527 2.937,0 5.108,0.832 6.513,2.5 m -3.297,7.741 c 0,-1.133 -0.053,-2.081 -0.161,-2.838 -0.108,-0.757 -0.29,-1.363 -0.541,-1.822 -0.252,-0.462 -0.581,-0.791 -0.986,-0.986 -0.406,-0.199 -0.914,-0.299 -1.528,-0.299 -0.594,0 -1.094,0.1 -1.499,0.299 -0.406,0.195 -0.729,0.531 -0.972,0.999 -0.244,0.466 -0.42,1.079 -0.528,1.836 -0.108,0.757 -0.163,1.695 -0.163,2.811 0,1.134 0.055,2.086 0.163,2.852 0.108,0.764 0.284,1.38 0.528,1.85 0.243,0.469 0.566,0.801 0.972,0.999 0.405,0.199 0.905,0.298 1.499,0.298 0.614,0 1.127,-0.096 1.541,-0.284 0.415,-0.189 0.747,-0.514 1,-0.972 0.252,-0.459 0.428,-1.075 0.528,-1.853 0.097,-0.774 0.147,-1.736 0.147,-2.89 m -8.35,-24.556 h -5.134 l 5.134,-19.999 h 7.297 l 5.027,19.999 h -5.027 l -2.676,-11.108 -0.757,-4.378 h -0.431 l -0.704,4.378 z m 27.674,0 h -12.729 V -4.378 h 12.972 V 0 h -7.703 v 3.433 h 6.621 v 4.378 h -6.621 v 3.43 h 7.46 z m -0.245,24.666 v 0.188 l 1.731,0.756 3.701,8.972 h -5.783 l -2.784,-7.595 h -1.864 v 7.595 h -5.27 V 30.206 h 5.27 v 8.026 h 1.621 l 3.54,-8.026 h 5.839 l -4.245,9.324 z m 10.89,-29.369 -7.728,-10.432 v -4.864 h 13.972 v 4.405 h -8.216 v 0.271 l 7.73,10.431 v 4.892 h -13.027 v -4.405 h 7.269 z m 12.865,4.703 -4.784,-19.81 v -0.189 h 4.945 l 0.999,4.298 h 5.703 l 1.028,-4.298 h 4.944 v 0.189 l -4.782,19.81 z m 2.135,-11.514 1.08,4.756 0.649,2.919 h 0.324 l 0.648,-2.919 1.055,-4.756 z m 10.296,27.177 h 4.35 l 2.757,9.163 0.864,3.541 h 0.162 V 30.206 h 4.919 v 19.997 h -7.594 l -2.567,-8.674 -0.568,-3.512 h -0.216 l -0.568,3.512 -2.539,8.674 h -7.595 V 30.206 h 4.811 v 13.782 h 0.163 l 0.917,-3.541 z m 8.755,-30.946 c -0.433,0.135 -0.811,0.283 -1.135,0.446 v -4.405 c 1.153,-0.378 2.216,-0.654 3.19,-0.823 0.972,-0.171 1.936,-0.257 2.889,-0.257 1.064,0 2.019,0.147 2.867,0.445 0.845,0.298 1.566,0.721 2.16,1.271 0.596,0.548 1.055,1.22 1.379,2.012 0.325,0.793 0.487,1.685 0.487,2.676 0,0.937 -0.118,1.73 -0.353,2.379 -0.234,0.647 -0.535,1.193 -0.903,1.635 -0.37,0.439 -0.795,0.796 -1.271,1.066 -0.477,0.271 -0.96,0.504 -1.446,0.702 -0.469,0.18 -0.918,0.342 -1.351,0.488 -0.433,0.144 -0.815,0.305 -1.149,0.486 -0.334,0.18 -0.604,0.395 -0.81,0.647 -0.207,0.254 -0.311,0.578 -0.311,0.974 0,1.028 0.712,1.54 2.135,1.54 0.27,0 0.594,-0.022 0.972,-0.067 0.379,-0.044 0.776,-0.099 1.19,-0.162 0.414,-0.064 0.823,-0.139 1.229,-0.23 0.406,-0.091 0.779,-0.188 1.122,-0.298 v 4.19 c -0.865,0.27 -1.707,0.468 -2.527,0.593 -0.82,0.127 -1.635,0.191 -2.445,0.191 -2.199,0 -3.905,-0.505 -5.121,-1.514 -1.217,-1.01 -1.825,-2.424 -1.825,-4.243 0,-1.206 0.135,-2.197 0.406,-2.974 0.27,-0.773 0.621,-1.394 1.053,-1.864 0.433,-0.467 0.919,-0.828 1.46,-1.08 0.541,-0.253 1.072,-0.45 1.594,-0.594 0.414,-0.108 0.807,-0.213 1.176,-0.311 0.368,-0.1 0.697,-0.222 0.986,-0.365 0.288,-0.144 0.514,-0.324 0.677,-0.541 0.16,-0.216 0.243,-0.496 0.243,-0.837 0,-1.243 -0.883,-1.865 -2.649,-1.865 -0.378,0 -0.794,0.031 -1.243,0.094 -0.452,0.064 -0.902,0.144 -1.352,0.243 -0.45,0.1 -0.892,0.216 -1.324,0.352 m 13.62,34.244 v 3.435 h 6.62 v 4.376 h -6.62 v 3.43 h 7.459 v 4.38 h -12.729 V 30.206 h 12.972 v 4.376 z m 6.62,-18.961 h -5.27 V -4.378 h 11.297 V 0 h -6.027 z m 10.216,-2.27 c -1.406,-1.695 -2.109,-4.281 -2.109,-7.757 0,-3.459 0.703,-6.031 2.109,-7.715 1.404,-1.685 3.558,-2.527 6.458,-2.527 2.936,0 5.107,0.834 6.512,2.5 1.406,1.666 2.108,4.247 2.108,7.742 0,3.512 -0.698,6.108 -2.094,7.782 -1.397,1.677 -3.571,2.514 -6.526,2.514 -2.9,0 -5.054,-0.846 -6.458,-2.539 m 3.296,-7.757 c 0,1.135 0.054,2.085 0.163,2.851 0.107,0.766 0.284,1.382 0.527,1.852 0.243,0.469 0.566,0.801 0.972,0.999 0.406,0.199 0.906,0.298 1.5,0.298 0.613,0 1.127,-0.096 1.541,-0.284 0.414,-0.19 0.746,-0.514 1,-0.972 0.251,-0.461 0.427,-1.077 0.527,-1.853 0.098,-0.774 0.147,-1.738 0.147,-2.891 0,-1.134 -0.053,-2.08 -0.161,-2.837 -0.108,-0.757 -0.289,-1.365 -0.541,-1.823 -0.252,-0.461 -0.58,-0.79 -0.986,-0.987 -0.406,-0.199 -0.914,-0.298 -1.527,-0.298 -0.594,0 -1.094,0.099 -1.5,0.298 -0.406,0.197 -0.729,0.531 -0.972,1 -0.243,0.467 -0.42,1.08 -0.527,1.837 -0.109,0.756 -0.163,1.694 -0.163,2.81 m 11.946,24.612 v 10.861 h 0.297 l 0.946,-2.023 5.784,-8.838 h 4.295 v 19.997 h -4.593 V 39.421 h -0.298 l -1,2.081 -5.701,8.701 h -4.325 V 30.206 Z m 6.404,-14.585 h -5.135 l 5.135,-19.999 h 7.296 l 5.027,19.999 h -5.027 L -70.614,4.513 -71.371,0.135 h -0.431 l -0.703,4.378 z m 7.512,14.585 h 4.944 l 1,4.297 h 5.703 l 1.027,-4.297 h 4.944 v 0.189 l -4.781,19.808 h -8.053 l -4.784,-19.808 z m 6.918,8.485 1.081,4.756 0.648,2.917 h 0.324 l 0.649,-2.917 1.055,-4.756 z"
               style="fill:#231f20;fill-opacity:1;fill-rule:nonzero;stroke:none"
               id="path853" /></g><g
             id="g855"
             transform="translate(217.4109,345.4133)"><path
               d="m 0,0 c -23.378,7.349 -33.733,23.281 -37.663,31.487 -0.092,0.194 -0.181,0.382 -0.266,0.567 -0.138,0.378 -0.225,0.781 -0.225,1.207 0,1.92 1.527,3.475 3.432,3.539 0.041,0.002 0.079,0.013 0.12,0.013 0.026,0 0.05,-0.008 0.076,-0.008 12.674,0.261 44.618,-0.55 51.212,-14.908 C 23.082,7.971 0,0 0,0"
               style="fill:#50ade5;fill-opacity:1;fill-rule:nonzero;stroke:none"
               id="path857" /></g></g></g><g
         id="g859"><g
           id="g861"
           clip-path="url(#clipPath865)"><g
             id="g867"><g
               id="g869"><path
                 d="m 65.636,305.726 -0.045,-0.006 c -1.787,-0.097 -3.288,-1.471 -3.469,-3.307 v 0 c -0.134,-1.371 0.51,-2.628 1.562,-3.368 v 0 c 0.308,-0.216 0.641,-0.4 1.011,-0.515 v 0 l 0.071,-0.014 10.999,-2.884 c 0,0 65.105,-15.964 65.205,-29.727 v 0 c 0.169,-23.154 -24.238,-68.39 -40.868,-96.498 v 0 c -0.011,-0.017 -0.021,-0.035 -0.031,-0.052 v 0 c -0.376,-0.573 -0.598,-1.257 -0.598,-1.992 v 0 c 0,-2.011 1.629,-3.64 3.639,-3.64 v 0 c 0.967,0 1.839,0.383 2.49,0.998 v 0 c 0.048,0.047 0.096,0.093 0.143,0.141 v 0 c 35.721,35.282 102.965,106.686 80.345,123.499 v 0 c -20.907,15.54 -61.783,18.522 -90.08,18.523 v 0 c -17.629,0 -30.374,-1.158 -30.374,-1.158"
                 style="fill:url(#linearGradient877);stroke:none"
                 id="path879" /></g></g></g></g><g
         id="g881"><g
           id="g883"
           clip-path="url(#clipPath887)"><g
             id="g889"><g
               id="g891"><path
                 d="m 95.433,383.783 c 0,-6.92 3.634,-12.969 9.082,-16.405 v 0 c 1.321,-0.948 2.351,-2.037 3.564,-4.233 v 0 c 0.078,-0.14 0.169,-0.276 0.263,-0.411 v 0 c 7.018,-12.424 18.726,-27.64 38.229,-42.338 v 0 c 0.626,-0.443 5.173,-3.577 10.285,-4.823 v 0 c 8.433,-1.888 26.371,-3.198 50.147,-6.761 v 0 c 21.891,-3.28 37.249,-11.194 46.333,-17.301 v 0 c 0.046,-0.033 0.093,-0.065 0.141,-0.095 v 0 c 0.558,-0.358 1.218,-0.571 1.929,-0.571 v 0 c 1.981,0 3.588,1.606 3.588,3.586 v 0 c 0,0.709 -0.213,1.365 -0.567,1.921 v 0 c -0.028,0.043 -0.057,0.088 -0.085,0.132 v 0 c -8.022,12.589 -22.078,31.026 -84.497,46.22 v 0 c 0,0 -17.787,3.764 -36.849,13.345 v 0 c -5.835,3.026 -11.803,6.772 -15.518,10.318 v 0 c 7.356,2.85 12.799,9.521 12.799,17.416 v 0 c 0,10.726 -8.695,19.421 -19.422,19.421 v 0 c -10.726,0 -19.422,-8.695 -19.422,-19.421"
                 style="fill:url(#linearGradient897);stroke:none"
                 id="path899" /></g></g></g></g></g></g></svg>
