<?xml version="1.0" encoding="UTF-8" standalone="no"?>
<svg xmlns="http://www.w3.org/2000/svg" version="1.1" viewBox="0 0 473.48 556.46" height="556.46" width="473.48">
 <defs>
  <clipPath id="clipPath10470">
   <path d="m 74.848,69.201 390.692,0 0,437.169 -390.692,0 0,-437.169 z"/>
  </clipPath>
 </defs>
 <g transform="translate(-106.08,-168.45)">
  <g transform="matrix(1.25,0,0,-1.25,3.6857,806.41)">
   <g>
    <g style="clip-path:url(#clipPath10470)">
     <g transform="translate(72.836,530.51)">
      <path d="m 201.84,-24.138 c 34.45,0 62.56,-28.765 62.56,-64.03 0,-35.262 -28.11,-64.032 -62.56,-64.032 -34.46,0 -62.56,28.77 -62.56,64.032 0,35.265 28.1,64.03 62.56,64.03" style="fill:#4c5498;fill-rule:evenodd"/>
     </g>
    </g>
   </g>
   <g transform="translate(66.998,474.67)">
    <path d="m 178.49,-247.53 c -22.3,24.52 -22.36,65.89 -18.04,75.22 20.63,-15.71 28.41,-38.33 30.94,-72.62 0,0 -14.41,-2.6 -12.9,-2.6" style="fill:#4c5498;fill-rule:evenodd"/>
   </g>
   <g transform="translate(54.438,481.93)">
    <path d="m 128.24,-218.45 c -24.62,22.14 -25.59,69.17 -17.17,83.16 20.63,-15.72 28.57,-52.49 29.81,-86.78 0,0 -14.15,3.62 -12.64,3.62" style="fill:#4c5498;fill-rule:evenodd"/>
   </g>
   <g transform="translate(41.662,502.47)">
    <path d="m 77.139,-136.28 c -25.435,26.08 -31.32,63.39 -19.55,89.96 26.68,-25.275 18.09,-89.96 19.55,-89.96" style="fill:#4c5498;fill-rule:evenodd"/>
   </g>
   <g transform="translate(40.754,516.61)">
    <path d="m 73.511,-79.737 c 5.67,11.286 12.31,19.33 19.71,27.326 3.4,-34.401 3.24,-63.239 -12.475,-98.229 0.65,22.9 -0.105,52.488 -7.235,70.903" style="fill:#4c5498;fill-rule:evenodd"/>
   </g>
   <g transform="translate(42.968,500.42)">
    <path d="m 82.367,-144.49 c 2.54,12.74 5.885,29.16 10.64,39.09 13.443,-20.57 22.513,-53.35 14.953,-81.75 -7.12,14.79 -14.793,28.46 -25.593,42.66" style="fill:#4c5498;fill-rule:evenodd"/>
   </g>
   <g transform="translate(35.084,505.44)">
    <path d="m 50.831,-124.4 c 3.835,-47.91 53.889,-87.97 66.689,-84.3 -18.684,56 -49.519,80.78 -66.689,84.3" style="fill:#4c5498;fill-rule:evenodd"/>
   </g>
   <g transform="translate(37.979,491.21)">
    <path d="m 62.408,-181.34 c 23.6,-4.48 48.872,-12.37 76.682,-45.42 l -39.747,1.68 c -19.815,8.48 -32.94,35.85 -36.935,43.74" style="fill:#4c5498;fill-rule:evenodd"/>
   </g>
   <g transform="translate(43.033,481.61)">
    <path d="m 82.626,-219.75 c 74.684,0.7 97.314,-13.71 113.074,-37.96 -33.31,8.75 -47.84,11.12 -87.48,10.37 -8.529,7.02 -17.654,12.8 -25.594,27.59" style="fill:#4c5498;fill-rule:evenodd"/>
   </g>
   <g transform="translate(44.426,473.57)">
    <path d="m 88.199,-251.89 c 32.671,22.63 96.281,1.89 96.441,1.68 l -14.47,-11.61 c 0,0 3.35,-5.19 2.27,-4.59 -27.54,-4.05 -53.95,-12.91 -84.241,14.52" style="fill:#4c5498;fill-rule:evenodd"/>
   </g>
   <g>
    <g style="clip-path:url(#clipPath10470)">
     <g transform="translate(46.975,476.6)">
      <path d="m 98.394,-239.79 -5.455,0.75 c -65.07,-27.27 40.771,-98.82 90.561,-48.11 l -13.88,14.47 c -46.17,-9.4 -64.21,-4.59 -85.591,16.96 3.405,7.34 8.48,11.99 14.365,15.93" style="fill:#4c5498;fill-rule:evenodd"/>
     </g>
    </g>
   </g>
   <g transform="translate(61.382,471.28)">
    <path d="m 156.02,-261.05 c 13.39,9.72 25.71,13.94 40.83,12.26 l 0.32,-7.24 c -13.77,-1.89 -22.46,-6.64 -30.89,-15.87 -4.21,3.08 -7.5,5.88 -10.26,10.85" style="fill:#4c5498;fill-rule:evenodd"/>
   </g>
   <g transform="translate(71.772,474.3)">
    <path d="m 197.58,-248.99 0.27,-27.27 -4.86,0.1 c -0.1,0 -2.59,25.87 -2.27,25.87 0,0 7.13,1.13 6.86,1.35" style="fill:#4c5498;fill-rule:evenodd"/>
   </g>
   <g transform="translate(58.542,462.07)">
    <path d="m 144.66,-297.9 c 18.42,17.28 37.05,29.65 56.92,35.48 l 0.65,-9.23 c -13.77,-1.89 -39.69,-26.19 -48.12,-37.37 -4.21,3.08 -6.69,6.15 -9.45,11.12" style="fill:#4c5498;fill-rule:evenodd"/>
   </g>
   <g transform="translate(76.88,474.67)">
    <path d="m 218.01,-247.53 c 22.3,24.52 22.36,65.89 18.04,75.22 -20.63,-15.71 -28.41,-38.33 -30.94,-72.62 0,0 14.42,-2.6 12.9,-2.6" style="fill:#4c5498;fill-rule:evenodd"/>
   </g>
   <g transform="translate(89.441,481.93)">
    <path d="m 268.25,-218.45 c 24.63,22.14 25.6,69.17 17.17,83.16 -20.62,-15.72 -28.56,-52.49 -29.8,-86.78 0,0 14.15,3.62 12.63,3.62" style="fill:#4c5498;fill-rule:evenodd"/>
   </g>
   <g transform="translate(102.22,502.47)">
    <path d="m 319.36,-136.28 c 25.44,26.08 31.32,63.39 19.55,89.96 -26.68,-25.275 -18.09,-89.96 -19.55,-89.96" style="fill:#4c5498;fill-rule:evenodd"/>
   </g>
   <g transform="translate(103.12,516.61)">
    <path d="m 322.99,-79.737 c -5.67,11.286 -12.31,19.33 -19.71,27.326 -3.4,-34.401 -3.24,-63.239 12.48,-98.229 -0.65,22.9 0.1,52.488 7.23,70.903" style="fill:#4c5498;fill-rule:evenodd"/>
   </g>
   <g transform="translate(100.91,500.42)">
    <path d="m 314.13,-144.49 c -2.54,12.74 -5.88,29.16 -10.64,39.09 -13.44,-20.57 -22.51,-53.35 -14.95,-81.75 7.13,14.79 14.79,28.46 25.59,42.66" style="fill:#4c5498;fill-rule:evenodd"/>
   </g>
   <g transform="translate(108.79,505.44)">
    <path d="m 345.67,-124.4 c -3.83,-47.91 -53.89,-87.97 -66.69,-84.3 18.69,56 49.52,80.78 66.69,84.3" style="fill:#4c5498;fill-rule:evenodd"/>
   </g>
   <g transform="translate(105.9,491.21)">
    <path d="m 334.09,-181.34 c -23.59,-4.48 -48.87,-12.37 -76.68,-45.42 l 39.75,1.68 c 19.81,8.48 32.94,35.85 36.93,43.74" style="fill:#4c5498;fill-rule:evenodd"/>
   </g>
   <g transform="translate(100.85,481.61)">
    <path d="m 313.87,-219.75 c -74.68,0.7 -97.31,-13.71 -113.07,-37.96 33.31,8.75 47.84,11.12 87.48,10.37 8.53,7.02 17.65,12.8 25.59,27.59" style="fill:#4c5498;fill-rule:evenodd"/>
   </g>
   <g transform="translate(99.452,473.57)">
    <path d="m 308.3,-251.89 c -32.67,22.63 -96.28,1.89 -96.44,1.68 l 14.47,-11.61 c 0,0 -3.35,-5.19 -2.27,-4.59 27.54,-4.05 53.95,-12.91 84.24,14.52" style="fill:#4c5498;fill-rule:evenodd"/>
   </g>
   <g transform="translate(96.903,476.6)">
    <path d="m 298.11,-239.79 5.45,0.75 c 65.07,-27.27 -40.77,-98.82 -90.56,-48.11 l 13.88,14.47 c 46.17,-9.4 64.21,-4.59 85.59,16.96 -3.4,7.34 -8.48,11.99 -14.36,15.93" style="fill:#4c5498;fill-rule:evenodd"/>
   </g>
   <g transform="translate(82.496,471.28)">
    <path d="m 240.48,-261.05 c -13.39,9.72 -25.71,13.94 -40.83,12.26 l -0.32,-7.24 c 13.77,-1.89 22.46,-6.64 30.89,-15.87 4.21,3.08 7.5,5.88 10.26,10.85" style="fill:#4c5498;fill-rule:evenodd"/>
   </g>
   <g transform="translate(72.107,474.3)">
    <path d="m 198.92,-248.99 -0.27,-27.27 4.86,0.1 c 0.1,0 2.59,25.87 2.26,25.87 0,0 -7.12,1.13 -6.85,1.35" style="fill:#4c5498;fill-rule:evenodd"/>
   </g>
   <g transform="translate(85.337,462.07)">
    <path d="m 251.84,-297.9 c -18.41,17.28 -37.05,29.65 -56.91,35.48 l -0.66,-9.23 c 13.77,-1.89 39.69,-26.19 48.12,-37.37 4.21,3.08 6.7,6.15 9.45,11.12" style="fill:#4c5498;fill-rule:evenodd"/>
   </g>
   <g transform="translate(82.086,483.59)">
    <path d="m 238.84,-211.84 -0.1,91.64 -5.4,6.75 28.62,-0.1 -5.07,-6.69 0.21,-91.7 4.86,-9.55 -28.46,0.16 5.3,9.45 z" style="fill:#4c5498;fill-rule:evenodd"/>
   </g>
   <g transform="translate(58.456,483.61)">
    <path d="m 144.31,-211.75 -0.1,91.63 -5.4,6.75 28.62,0 -5.08,-6.7 0.22,-91.69 4.86,-9.56 -28.45,0.17 5.28,9.45 z" style="fill:#4c5498;fill-rule:evenodd"/>
   </g>
   <g transform="translate(60.691,494.29)">
    <path d="m 153.26,-169.03 111.4,0 0.81,-12.48 c 0,-0.1 -111.94,-0.1 -111.94,-0.1 0,0 0,12.26 -0.27,12.53" style="fill:#4c5498;fill-rule:evenodd"/>
   </g>
   <g transform="translate(46.077,513.9)">
    <path d="m 94.801,-90.579 4.65,0.269 c 0.17,-13.93 1.189,-22.08 13.269,-32.29 5.33,-4.54 12.19,-5.83 17.8,-5.83 6.52,0 9.81,0.75 13.5,4.8 3.51,3.89 5.67,8.64 5.67,13.72 0,7.13 -4.77,13.77 -13.44,19.331 -8.62,5.559 -18.03,10.909 -26.03,16.739 -9.35,6.805 -13.889,16.255 -13.889,26.945 0,10.64 3.4,19.386 9.979,25.38 6.86,6.21 15.59,9.665 26.88,9.665 4.76,0 9.58,-0.27 14.34,-1.025 4.37,-0.7 8.62,-2.05 12.53,-3.564 l 0.91,-29.481 -5.67,0 c -0.85,8.64 -3.63,15.711 -8.22,20.841 -4.48,4.97 -10.83,7.615 -18.2,7.615 -5.67,0 -10.49,-1.995 -13.44,-5.075 -3.46,-3.51 -5.22,-8.101 -5.22,-12.691 0,-6.59 4.48,-13.07 13.44,-18.79 9.24,-5.89 17.98,-11.45 26.42,-17.77 9.76,-7.339 14.35,-17.28 14.35,-27.97 0,-10.15 -3.01,-18.9 -9.13,-25.38 -6.35,-6.64 -14.57,-8.64 -26.31,-8.64 -4.31,0 -11.51,0.43 -16.27,3.08 -6.75,3.83 -9.3,5.99 -17.524,13.82 l -0.395,26.301 z" style="fill:#4c5498;fill-rule:evenodd"/>
   </g>
   <g transform="translate(85.531,506.49)">
    <path d="m 252.62,-120.21 c 4.39,0 7.39,1.06 9,3.14 1.61,2.07 2.42,5.63 2.42,10.62 l 0,83.33 c 0,4.86 -0.85,8.395 -2.49,10.535 -1.64,2.17 -4.64,3.2501 -8.93,3.2501 l 0,5.105 19.53,-0.51 51.71,1.525 1.52,-30.4251 -4.81,0 c -1.38,9.965 -3.84,16.305 -7.36,18.96 -3.54,2.65 -10.31,4 -20.3,4 l -5.29,0 c -1.23,0 -3.32,-0.245 -6.25,-0.69 l 0,-48.45 12.77,0 c 6.04,0 10.1,1.105 12.16,3.315 2.07,2.205 3.1,6.56 3.1,13.01 l 4.69,0 -0.41,-20.085 0.41,-19.53 -4.69,0 c 0,6.34 -1.43,10.74 -4.25,13.17 -2.84,2.43 -7.22,3.665 -13.08,3.665 l -10.7,0 0,-40.175 c 0,-4.85 0.82,-8.39 2.46,-10.53 1.65,-2.14 4.65,-3.23 8.96,-3.23 l 0,-5.1 -20.09,0.51 -20.08,-1.37 0,5.96 z" style="fill:#4c5498;fill-rule:evenodd"/>
   </g>
   <g transform="translate(70.293,512.33)">
    <path d="m 191.66,-96.871 27.28,0.35 12.13,-14.689 c -9.21,-17.26 -43.02,-17.72 -51.18,-1.28 l 11.77,15.619 z" style="fill:#ffffff;fill-rule:evenodd"/>
   </g>
   <g transform="translate(71.815,529.86)">
    <path d="m 197.75,-26.73 4.67,0 c 1.39,-1.05 0.35,-3.85 0.58,-5.83 l -18.42,-10.49 -2.33,-1.87 -20.17,-3.61 -2.33,1.98 c 2.44,4.55 7.81,7.46 11.65,10.495 3.85,2.795 8.4,4.08 12.36,6.175 3.73,1.4 7.11,1.75 10.49,2.685 l 3.5,0.465 z" style="fill:#ffffff;fill-rule:evenodd"/>
   </g>
   <g transform="translate(73.413,529.86)">
    <path d="m 204.15,-26.73 c 19.7,-2.215 26.7,-5.83 40.8,-18.535 l -1.28,-3.15 -18.19,4.545 c -6.88,4.315 -14.45,7.465 -21.33,10.38 -0.35,0.7 -0.35,6.76 0,6.76" style="fill:#ffffff;fill-rule:evenodd"/>
   </g>
   <g transform="translate(73.036,528)">
    <path d="m 202.63,-34.188 c 5.83,-0.815 14.7,-5.945 18.89,-9.675 l -4.78,-15.74 -24.25,-0.115 -8.62,14.92 c 7.1,4.08 11.77,7.93 18.76,10.61" style="fill:#ffffff;fill-rule:evenodd"/>
   </g>
   <g transform="translate(77.511,525.82)">
    <path d="m 220.54,-42.885 17.83,-4.665 15.39,-20.87 -6.76,-17.485 -18.65,4.665 c -2.8,6.995 -7.93,15.62 -13.41,21.1 0.58,2.1 4.55,16.79 5.6,17.255" style="fill:#ffffff;fill-rule:evenodd"/>
   </g>
   <g transform="translate(68.635,525.64)">
    <path d="m 185.03,-43.642 8.4,-15.739 -16.21,-21.566 -11.66,-3.735 -5.36,-1.515 c -2.56,2.215 -2.91,4.315 -4.55,7.345 -0.93,3.035 -2.33,6.181 -3.03,9.21 l 13.29,22.15 19.12,3.85 z" style="fill:#ffffff;fill-rule:evenodd"/>
   </g>
   <g transform="translate(82.043,525.64)">
    <path d="m 238.66,-43.621 c 2.34,-2.68 4.43,-5.48 6.3,-8.86 1.87,-3.265 3.97,-8.745 4.78,-12.36 l -8.51,13.175 -4.32,5.83 1.17,2.45 0.58,-0.235 z" style="fill:#ffffff;fill-rule:evenodd"/>
   </g>
   <g transform="translate(63.931,525.5)">
    <path d="m 166.22,-44.183 1.28,-1.865 -12.94,-21.57 c -1.4,2.335 1.4,5.83 1.63,8.395 2.68,5.365 5.36,10.025 8.74,14.805 0.35,0.12 0.35,0.235 0.82,0.47 l 0.47,-0.235 z" style="fill:#ffffff;fill-rule:evenodd"/>
   </g>
   <g transform="translate(70.981,522.07)">
    <path d="m 194.42,-57.896 24.6,0 c 4.54,-6.995 8.86,-12.94 12,-20.985 -4.08,-8.86 -8.27,-16.205 -13.4,-24.369 l -25.53,0.12 -13.18,23.434 15.51,21.8 z" style="fill:#ffffff;fill-rule:evenodd"/>
   </g>
   <g transform="translate(61.526,520.18)">
    <path d="m 156.6,-65.449 c 1.28,-4.665 5.24,-14.925 7.92,-18.42 l 2.34,-23.201 -3.85,-1.63 c -6.88,6.18 -12.71,33.456 -6.41,43.251" style="fill:#ffffff;fill-rule:evenodd"/>
   </g>
   <g transform="translate(84.578,520.46)">
    <path d="m 248.81,-64.325 c 2.09,-10.61 1.16,-35.785 -6.88,-43.835 l -1.87,1.4 1.98,24.245 c 0.93,1.87 6.77,18.305 6.77,18.19" style="fill:#ffffff;fill-rule:evenodd"/>
   </g>
   <g transform="translate(79.008,517.52)">
    <path d="m 226.53,-76.108 17.6,-4.545 c -0.7,-7.695 -0.59,-15.39 -1.99,-22.967 -4.54,-3.03 -7.92,-4.9 -17.24,-10.38 -3.97,4.55 -7.59,9.33 -11.55,14.107 0.81,2.335 12.82,23.785 13.18,23.785" style="fill:#ffffff;fill-rule:evenodd"/>
   </g>
   <g transform="translate(67.316,517.41)">
    <path d="m 179.76,-76.525 c 1.75,-4.196 9.44,-20.401 11.66,-24.255 l -10.5,-14.22 -16.43,9.79 -2.45,23.319 17.72,5.366 z" style="fill:#ffffff;fill-rule:evenodd"/>
   </g>
   <g transform="translate(82.993,511.14)">
    <path d="m 242.47,-101.63 c -2.22,-4.31 -5.25,-7.11 -8.63,-10.96 -4.55,-4.43 -8.39,-6.76 -12.94,-9.67 -3.73,-2.33 -8.28,-2.92 -12.24,-4.67 -1.17,0 -2.22,2.1 -2.68,2.8 4.08,2.1 7.58,3.5 10.96,7 5.01,7.11 4.19,4.31 21.1,15.5 0.81,0.7 1.28,1.05 1.75,1.4 0.81,-0.11 1.98,-1.05 2.68,-1.4" style="fill:#ffffff;fill-rule:evenodd"/>
   </g>
   <g transform="translate(63.823,511.22)">
    <path d="m 165.79,-101.29 c 5.59,-3.5 11.42,-6.88 17.02,-10.61 5.01,-5.48 8.86,-9.45 14.69,-12.13 1.05,-1.05 -0.47,-2.68 -0.82,-3.61 -14.8,4.2 -25.65,11.66 -34.51,24.83 l 3.62,1.52 z" style="fill:#ffffff;fill-rule:evenodd"/>
   </g>
   <g transform="translate(74.947,506.48)">
    <path d="m 210.28,-120.26 c 0.47,0 0.47,-0.11 0.59,-0.58 0.11,-0.35 0.46,-0.7 0.93,-0.93 0.35,-0.35 0.58,-0.82 0.81,-1.52 0,-0.46 -0.81,-0.82 -1.28,-0.46 -6.53,-1.29 -13.75,-1.64 -20.75,-0.47 -0.93,0.11 -1.75,0.35 -2.45,0.47 -0.58,0.81 0.35,2.44 0.82,3.03 l 6.99,-1.05 8.51,0.23 5.83,1.28 z" style="fill:#ffffff;fill-rule:evenodd"/>
   </g>
   <g transform="translate(57.034,451.64)">
    <path d="m 138.63,-339.62 4.42,0.43 c 0.26,-1.49 0.8,-2.57 1.62,-3.27 0.81,-0.7 1.91,-1.04 3.29,-1.04 1.46,0 2.56,0.31 3.3,0.93 0.75,0.61 1.12,1.34 1.12,2.17 0,0.53 -0.16,0.98 -0.47,1.35 -0.31,0.37 -0.86,0.7 -1.63,0.98 -0.54,0.19 -1.75,0.51 -3.64,0.99 -2.43,0.6 -4.15,1.33 -5.13,2.22 -1.38,1.24 -2.07,2.75 -2.07,4.53 0,1.14 0.33,2.21 0.97,3.21 0.65,1 1.59,1.76 2.81,2.28 1.22,0.52 2.7,0.78 4.43,0.78 2.82,0 4.95,-0.62 6.38,-1.85 1.43,-1.24 2.18,-2.9 2.25,-4.96 l -4.54,-0.2 c -0.2,1.16 -0.61,1.99 -1.25,2.5 -0.64,0.5 -1.61,0.76 -2.88,0.76 -1.32,0 -2.36,-0.27 -3.11,-0.81 -0.48,-0.35 -0.72,-0.82 -0.72,-1.4 0,-0.54 0.23,-0.99 0.68,-1.37 0.57,-0.48 1.96,-0.98 4.17,-1.5 2.21,-0.52 3.85,-1.06 4.91,-1.62 1.05,-0.56 1.88,-1.33 2.48,-2.3 0.6,-0.96 0.9,-2.15 0.9,-3.57 0,-1.3 -0.36,-2.51 -1.07,-3.63 -0.72,-1.12 -1.73,-1.96 -3.04,-2.51 -1.31,-0.54 -2.95,-0.82 -4.9,-0.82 -2.84,0 -5.03,0.66 -6.55,1.97 -1.52,1.31 -2.44,3.24 -2.73,5.75" style="fill:#4c5498;fill-rule:evenodd"/>
   </g>
   <g transform="translate(62.606,450.18)">
    <path d="m 160.91,-345.47 -8.04,22.5 4.92,0 5.7,-16.66 5.51,16.66 4.82,0 -8.06,-22.5 -4.85,0 z" style="fill:#4c5498;fill-rule:evenodd"/>
   </g>
   <g transform="translate(65.651,450.18)">
    <path d="m 173.1,-345.47 0,22.5 16.68,0 0,-3.81 -12.14,0 0,-4.99 11.3,0 0,-3.79 -11.3,0 0,-6.12 12.57,0 0,-3.79 -17.11,0 z" style="fill:#4c5498;fill-rule:evenodd"/>
   </g>
   <g transform="translate(69.854,450.18)">
    <path d="m 189.91,-345.47 0,22.5 4.42,0 9.21,-15.03 0,15.03 4.22,0 0,-22.5 -4.55,0 -9.08,14.66 0,-14.66 -4.21,0 z" style="fill:#4c5498;fill-rule:evenodd"/>
   </g>
   <g transform="translate(74.154,451.64)">
    <path d="m 207.11,-339.62 4.42,0.43 c 0.26,-1.49 0.8,-2.57 1.62,-3.27 0.81,-0.7 1.91,-1.04 3.29,-1.04 1.46,0 2.56,0.31 3.3,0.93 0.75,0.61 1.12,1.34 1.12,2.17 0,0.53 -0.16,0.98 -0.47,1.35 -0.31,0.37 -0.86,0.7 -1.63,0.98 -0.54,0.19 -1.75,0.51 -3.64,0.99 -2.43,0.6 -4.15,1.33 -5.13,2.22 -1.38,1.24 -2.07,2.75 -2.07,4.53 0,1.14 0.33,2.21 0.97,3.21 0.65,1 1.6,1.76 2.81,2.28 1.22,0.52 2.7,0.78 4.43,0.78 2.83,0 4.96,-0.62 6.38,-1.85 1.43,-1.24 2.18,-2.9 2.25,-4.96 l -4.54,-0.2 c -0.2,1.16 -0.61,1.99 -1.25,2.5 -0.64,0.5 -1.61,0.76 -2.88,0.76 -1.32,0 -2.36,-0.27 -3.11,-0.81 -0.48,-0.35 -0.72,-0.82 -0.72,-1.4 0,-0.54 0.23,-0.99 0.68,-1.37 0.57,-0.48 1.96,-0.98 4.17,-1.5 2.21,-0.52 3.85,-1.06 4.91,-1.62 1.06,-0.56 1.88,-1.33 2.48,-2.3 0.6,-0.96 0.9,-2.15 0.9,-3.57 0,-1.3 -0.36,-2.51 -1.07,-3.63 -0.72,-1.12 -1.73,-1.96 -3.04,-2.51 -1.31,-0.54 -2.94,-0.82 -4.9,-0.82 -2.84,0 -5.03,0.66 -6.55,1.97 -1.52,1.31 -2.44,3.24 -2.73,5.75" style="fill:#4c5498;fill-rule:evenodd"/>
   </g>
   <g transform="translate(78.59,450.18)">
    <path d="m 224.85,-345.47 0,22.5 4.55,0 0,-10 9.18,10 6.1,0 -8.47,-8.77 8.93,-13.73 -5.87,0 -6.19,10.56 -3.68,-3.77 0,-6.79 -4.55,0 z" style="fill:#4c5498;fill-rule:evenodd"/>
   </g>
   <g transform="translate(85.504,451.96)">
    <path d="m 252.51,-338.35 -3.11,8.34 -3.04,-8.35 6.15,0 z m 8.36,-8.91 -4.94,0 -1.97,5.11 -9,0 -1.85,-5.11 -4.82,0 8.76,22.5 4.81,0 9.01,-22.5 z" style="fill:#4c5498;fill-rule:evenodd"/>
   </g>
   <g transform="translate(35.098,443.15)">
    <path d="m 50.883,-373.57 0,22.5 4.545,0 0,-8.85 8.905,0 0,8.85 4.545,0 0,-22.5 -4.545,0 0,9.84 -8.905,0 0,-9.84 -4.54,0 z" style="fill:#4c5498;fill-rule:evenodd"/>
   </g>
   <g transform="translate(42.02,444.93)">
    <path d="m 78.574,-366.45 -3.1,8.35 -3.045,-8.35 6.145,0 z m 8.365,-8.9 -4.95,0 -1.96,5.11 -8.995,0 -1.855,-5.11 -4.82,0 8.76,22.5 4.81,0 9.01,-22.5 z" style="fill:#4c5498;fill-rule:evenodd"/>
   </g>
   <g transform="translate(44.184,443.15)">
    <path d="m 87.23,-373.57 0,22.5 4.42,0 9.2,-15.02 0,15.02 4.22,0 0,-22.5 -4.54,0 -9.08,14.67 0,-14.67 -4.215,0 z" style="fill:#4c5498;fill-rule:evenodd"/>
   </g>
   <g transform="translate(49.62,446.89)">
    <path d="m 108.97,-358.61 0,-14.91 3.39,0 c 1.27,0 2.19,0.1 2.75,0.22 0.74,0.18 1.35,0.5 1.83,0.93 0.49,0.44 0.89,1.17 1.19,2.17 0.31,1.01 0.46,2.39 0.46,4.13 0,1.73 -0.15,3.07 -0.46,4 -0.3,0.93 -0.73,1.66 -1.28,2.18 -0.55,0.52 -1.26,0.88 -2.11,1.06 -0.63,0.14 -1.88,0.22 -3.73,0.22 l -2.04,0 z m -4.54,3.81 8.3,0 c 1.87,0 3.3,-0.14 4.28,-0.43 1.32,-0.38 2.46,-1.08 3.39,-2.07 0.95,-0.99 1.66,-2.21 2.15,-3.64 0.5,-1.44 0.74,-3.22 0.74,-5.32 0,-1.85 -0.23,-3.45 -0.69,-4.79 -0.56,-1.64 -1.37,-2.97 -2.41,-3.98 -0.78,-0.76 -1.85,-1.37 -3.19,-1.79 -1,-0.32 -2.34,-0.48 -4.02,-0.48 l -8.55,0 0,22.51 z" style="fill:#4c5498;fill-rule:evenodd"/>
   </g>
   <g transform="translate(54.167,445.12)">
    <path d="m 127.16,-365.72 0,-6.02 4.21,0 c 1.64,0 2.68,0.1 3.12,0.14 0.67,0.12 1.23,0.42 1.65,0.89 0.42,0.48 0.63,1.12 0.63,1.92 0,0.67 -0.16,1.25 -0.49,1.72 -0.32,0.46 -0.8,0.81 -1.41,1.03 -0.63,0.21 -1.97,0.32 -4.03,0.32 l -3.67,0 z m 0,8.94 0,-5.2 2.98,0 c 1.77,0 2.87,0 3.3,0.1 0.78,0.1 1.4,0.36 1.83,0.8 0.45,0.45 0.68,1.04 0.68,1.76 0,0.7 -0.2,1.27 -0.57,1.7 -0.39,0.43 -0.97,0.7 -1.72,0.79 -0.45,0.1 -1.75,0.1 -3.89,0.1 l -2.6,0 z m -4.55,3.75 8.99,0 c 1.79,0 3.12,-0.1 3.99,-0.22 0.87,-0.15 1.66,-0.46 2.34,-0.93 0.7,-0.47 1.27,-1.1 1.73,-1.88 0.46,-0.78 0.7,-1.66 0.7,-2.63 0,-1.05 -0.29,-2.02 -0.86,-2.9 -0.56,-0.88 -1.34,-1.55 -2.31,-1.98 1.37,-0.4 2.43,-1.08 3.17,-2.05 0.73,-0.96 1.1,-2.09 1.1,-3.39 0,-1.02 -0.24,-2.02 -0.71,-2.98 -0.48,-0.97 -1.13,-1.75 -1.95,-2.32 -0.83,-0.58 -1.84,-0.94 -3.05,-1.07 -0.75,-0.1 -2.59,-0.13 -5.48,-0.15 l -7.66,0 0,22.5 z" style="fill:#4c5498;fill-rule:evenodd"/>
   </g>
   <g transform="translate(58.547,445.41)">
    <path d="m 144.68,-364.56 c 0,-2.55 0.59,-4.48 1.77,-5.79 1.17,-1.32 2.67,-1.98 4.48,-1.98 1.81,0 3.3,0.66 4.46,1.96 1.16,1.3 1.74,3.26 1.74,5.87 0,2.58 -0.57,4.5 -1.69,5.77 -1.14,1.27 -2.64,1.91 -4.51,1.91 -1.87,0 -3.38,-0.64 -4.53,-1.93 -1.14,-1.28 -1.72,-3.22 -1.72,-5.81 m -4.68,-0.15 c 0,2.29 0.34,4.22 1.03,5.77 0.51,1.14 1.21,2.17 2.09,3.08 0.89,0.91 1.86,1.59 2.91,2.03 1.4,0.59 3.02,0.89 4.85,0.89 3.32,0 5.97,-1.03 7.96,-3.09 1.99,-2.05 2.99,-4.92 2.99,-8.58 0,-3.63 -0.99,-6.47 -2.96,-8.52 -1.98,-2.05 -4.62,-3.08 -7.93,-3.08 -3.34,0 -6.01,1.03 -7.98,3.06 -1.97,2.04 -2.96,4.86 -2.96,8.44" style="fill:#4c5498;fill-rule:evenodd"/>
   </g>
   <g transform="translate(62.71,443.15)">
    <path d="m 161.33,-373.57 0,22.32 4.54,0 0,-18.53 11.3,0 0,-3.79 -15.84,0 z" style="fill:#4c5498;fill-rule:evenodd"/>
   </g>
   <g transform="translate(66.55,443.15)">
    <path d="m 176.69,-373.57 0,22.32 4.54,0 0,-18.53 11.3,0 0,-3.79 -15.84,0 z" style="fill:#4c5498;fill-rule:evenodd"/>
   </g>
   <g transform="translate(70.371,443.15)">
    <path d="m 191.98,-373.57 0,22.5 15.43,0 0,-3.8 -10.88,0 0,-5.33 9.39,0 0,-3.81 -9.39,0 0,-9.56 -4.54,0 z" style="fill:#4c5498;fill-rule:evenodd"/>
   </g>
   <g transform="translate(76.439,447.91)">
    <path d="m 216.25,-354.53 0,3.7 3.71,0 0,-3.71 -3.71,0 z m -6.6,0 0,3.7 3.7,0 0,-3.71 -3.7,0 z m -0.81,-12.53 c 0,-2.55 0.59,-4.49 1.76,-5.8 1.18,-1.31 2.67,-1.97 4.48,-1.97 1.81,0 3.3,0.65 4.46,1.96 1.16,1.3 1.74,3.26 1.74,5.87 0,2.58 -0.56,4.5 -1.69,5.77 -1.13,1.27 -2.63,1.91 -4.51,1.91 -1.87,0 -3.38,-0.65 -4.52,-1.93 -1.15,-1.28 -1.72,-3.22 -1.72,-5.81 m -4.69,-0.15 c 0,2.29 0.35,4.22 1.03,5.77 0.51,1.14 1.21,2.17 2.1,3.08 0.88,0.91 1.85,1.59 2.9,2.03 1.41,0.59 3.03,0.89 4.86,0.89 3.31,0 5.97,-1.03 7.95,-3.09 1.99,-2.05 2.99,-4.92 2.99,-8.58 0,-3.63 -0.99,-6.47 -2.96,-8.52 -1.98,-2.05 -4.62,-3.08 -7.92,-3.08 -3.35,0 -6.01,1.02 -7.98,3.06 -1.98,2.04 -2.97,4.86 -2.97,8.44" style="fill:#4c5498;fill-rule:evenodd"/>
   </g>
   <g transform="translate(80.006,445.75)">
    <path d="m 230.52,-363.18 3.35,0 c 2.19,0 3.55,0.1 4.09,0.27 0.54,0.19 0.97,0.51 1.28,0.96 0.3,0.44 0.46,1.01 0.46,1.68 0,0.76 -0.21,1.37 -0.61,1.84 -0.4,0.46 -0.98,0.76 -1.71,0.88 -0.37,0.1 -1.48,0.1 -3.32,0.1 l -3.55,0 0,-5.71 z m -4.55,-12.99 0,22.5 9.56,0 c 2.41,0 4.16,-0.2 5.24,-0.6 1.09,-0.41 1.97,-1.12 2.62,-2.16 0.66,-1.03 0.98,-2.22 0.98,-3.55 0,-1.68 -0.49,-3.08 -1.48,-4.18 -1,-1.09 -2.48,-1.79 -4.45,-2.08 0.98,-0.57 1.79,-1.2 2.43,-1.88 0.63,-0.69 1.5,-1.91 2.58,-3.66 l 2.75,-4.39 -5.43,0 -3.29,4.9 c -1.16,1.75 -1.96,2.85 -2.39,3.31 -0.43,0.45 -0.89,0.77 -1.37,0.93 -0.48,0.17 -1.24,0.26 -2.29,0.26 l -0.92,0 0,-9.4 -4.54,0 z" style="fill:#4c5498;fill-rule:evenodd"/>
   </g>
   <g transform="translate(84.547,445.12)">
    <path d="m 248.68,-365.72 0,-6.02 4.21,0 c 1.63,0 2.68,0.1 3.12,0.14 0.67,0.12 1.23,0.42 1.64,0.89 0.43,0.48 0.64,1.12 0.64,1.92 0,0.67 -0.16,1.25 -0.49,1.72 -0.32,0.46 -0.8,0.81 -1.42,1.03 -0.62,0.21 -1.96,0.32 -4.03,0.32 l -3.66,0 z m 0,8.94 0,-5.2 2.98,0 c 1.77,0 2.87,0 3.3,0.1 0.78,0.1 1.39,0.36 1.83,0.8 0.45,0.45 0.67,1.04 0.67,1.76 0,0.7 -0.19,1.27 -0.57,1.7 -0.38,0.43 -0.96,0.7 -1.71,0.79 -0.45,0.1 -1.75,0.1 -3.89,0.1 l -2.6,0 z m -4.55,3.75 9,0 c 1.77,0 3.1,-0.1 3.98,-0.22 0.87,-0.15 1.66,-0.46 2.34,-0.93 0.7,-0.47 1.27,-1.1 1.73,-1.88 0.46,-0.78 0.69,-1.66 0.69,-2.63 0,-1.05 -0.28,-2.02 -0.85,-2.9 -0.56,-0.88 -1.34,-1.55 -2.31,-1.98 1.37,-0.4 2.43,-1.08 3.16,-2.05 0.74,-0.96 1.11,-2.09 1.11,-3.39 0,-1.02 -0.24,-2.02 -0.71,-2.98 -0.48,-0.97 -1.13,-1.75 -1.96,-2.32 -0.82,-0.58 -1.84,-0.94 -3.04,-1.07 -0.76,-0.1 -2.59,-0.13 -5.48,-0.15 l -7.66,0 0,22.5 z" style="fill:#4c5498;fill-rule:evenodd"/>
   </g>
   <g transform="translate(88.169,447.65)">
    <path d="m 263.17,-355.57 4.54,0 0,-12.19 c 0,-1.93 0.1,-3.19 0.17,-3.76 0.19,-0.92 0.66,-1.66 1.38,-2.22 0.73,-0.55 1.74,-0.83 3,-0.83 1.29,0 2.27,0.26 2.92,0.79 0.66,0.52 1.05,1.17 1.18,1.94 0.13,0.77 0.2,2.04 0.2,3.82 l 0,12.45 4.55,0 0,-11.82 c 0,-2.7 -0.13,-4.61 -0.37,-5.72 -0.24,-1.12 -0.7,-2.06 -1.36,-2.83 -0.66,-0.76 -1.54,-1.38 -2.65,-1.83 -1.1,-0.45 -2.55,-0.68 -4.32,-0.68 -2.15,0 -3.79,0.25 -4.89,0.74 -1.11,0.49 -1.99,1.14 -2.64,1.93 -0.64,0.79 -1.07,1.63 -1.27,2.5 -0.3,1.28 -0.45,3.19 -0.45,5.71 l 0,12 z" style="fill:#4c5498;fill-rule:evenodd"/>
   </g>
   <g transform="translate(92.724,443.15)">
    <path d="m 281.39,-373.57 0,22.5 4.43,0 9.2,-15.02 0,15.02 4.22,0 0,-22.5 -4.55,0 -9.07,14.67 0,-14.67 -4.22,0 z" style="fill:#4c5498;fill-rule:evenodd"/>
   </g>
   <g transform="translate(98.16,446.89)">
    <path d="m 303.13,-358.61 0,-14.91 3.39,0 c 1.27,0 2.19,0.1 2.75,0.22 0.74,0.18 1.35,0.5 1.83,0.93 0.49,0.44 0.89,1.17 1.19,2.17 0.31,1.01 0.46,2.39 0.46,4.13 0,1.73 -0.15,3.07 -0.46,4 -0.3,0.93 -0.74,1.66 -1.28,2.18 -0.55,0.52 -1.26,0.88 -2.11,1.06 -0.63,0.14 -1.88,0.22 -3.73,0.22 l -2.04,0 z m -4.54,3.81 8.3,0 c 1.87,0 3.3,-0.14 4.28,-0.43 1.32,-0.38 2.46,-1.08 3.39,-2.07 0.94,-0.99 1.66,-2.21 2.15,-3.64 0.5,-1.44 0.74,-3.22 0.74,-5.32 0,-1.85 -0.23,-3.45 -0.69,-4.79 -0.56,-1.64 -1.37,-2.97 -2.41,-3.98 -0.78,-0.76 -1.85,-1.37 -3.19,-1.79 -1,-0.32 -2.34,-0.48 -4.02,-0.48 l -8.55,0 0,22.51 z" style="fill:#4c5498;fill-rule:evenodd"/>
   </g>
   <g transform="translate(101.79,443.15)">
    <path d="m 317.67,-373.57 0,22.5 16.69,0 0,-3.8 -12.15,0 0,-4.99 11.3,0 0,-3.79 -11.3,0 0,-6.13 12.57,0 0,-3.79 -17.11,0 z" style="fill:#4c5498;fill-rule:evenodd"/>
   </g>
   <g transform="translate(107,443.15)">
    <path d="m 338.5,-373.57 0,18.7 -6.68,0 0,3.8 17.88,0 0,-3.8 -6.66,0 0,-18.7 -4.54,0 z" style="fill:#4c5498;fill-rule:evenodd"/>
   </g>
  </g>
 </g>
</svg>
